<?xml version="1.0" encoding="UTF-8" standalone="no"?>
<!DOCTYPE svg PUBLIC "-//W3C//DTD SVG 1.1//EN"
 "http://www.w3.org/Graphics/SVG/1.1/DTD/svg11.dtd">
<!-- Generated by graphviz version 2.38.0 (20140413.2041)
 -->
<!-- Title: %3 Pages: 1 -->
<svg width="371pt" height="277pt"
 viewBox="0.00 0.00 371.34 276.59" xmlns="http://www.w3.org/2000/svg" xmlns:xlink="http://www.w3.org/1999/xlink">
<g id="graph0" class="graph" transform="scale(1 1) rotate(0) translate(4 272.593)">
<title>%3</title>
<polygon fill="white" stroke="none" points="-4,4 -4,-272.593 367.337,-272.593 367.337,4 -4,4"/>
<!-- 2 -->
<g id="node1" class="node"><title>2</title>
<ellipse fill="none" stroke="black" cx="45.1893" cy="-94" rx="18" ry="18"/>
<ellipse fill="none" stroke="black" cx="45.1893" cy="-94" rx="22" ry="22"/>
<text text-anchor="middle" x="45.1893" y="-90.3" font-family="Times,serif" font-size="14.00">2</text>
</g>
<!-- 2&#45;&gt;2 -->
<g id="edge15" class="edge"><title>2&#45;&gt;2</title>
<path fill="none" stroke="black" d="M62.8738,-80.8772C74.2453,-77.4539 85.1893,-81.8281 85.1893,-94 85.1893,-102.368 80.0165,-107.051 73.0884,-108.048"/>
<polygon fill="black" stroke="black" points="73.1487,-104.539 62.8738,-107.123 72.5173,-111.51 73.1487,-104.539"/>
</g>
<!-- 10 -->
<g id="node5" class="node"><title>10</title>
<ellipse fill="none" stroke="black" cx="211.189" cy="-172.148" rx="20.2975" ry="20.2975"/>
<text text-anchor="middle" x="211.189" y="-168.448" font-family="Times,serif" font-size="14.00">10</text>
</g>
<!-- 2&#45;&gt;10 -->
<g id="edge21" class="edge"><title>2&#45;&gt;10</title>
<path fill="none" stroke="black" d="M64.8835,-104.034C94.4303,-117.588 150.329,-143.23 183.824,-158.595"/>
<polygon fill="black" stroke="black" points="182.493,-161.835 193.041,-162.823 185.411,-155.473 182.493,-161.835"/>
</g>
<!-- 30 -->
<g id="node6" class="node"><title>30</title>
<ellipse fill="none" stroke="black" cx="163.189" cy="-248.445" rx="20.2975" ry="20.2975"/>
<text text-anchor="middle" x="163.189" y="-244.745" font-family="Times,serif" font-size="14.00">30</text>
</g>
<!-- 2&#45;&gt;30 -->
<g id="edge12" class="edge"><title>2&#45;&gt;30</title>
<path fill="none" stroke="black" d="M46.587,-116.353C48.9397,-137.522 55.2524,-169.939 72.1893,-192.296 88.1028,-213.303 114.539,-228.022 134.828,-236.939"/>
<polygon fill="black" stroke="black" points="133.645,-240.238 144.222,-240.852 136.337,-233.776 133.645,-240.238"/>
</g>
<!-- 6 -->
<g id="node7" class="node"><title>6</title>
<ellipse fill="none" stroke="black" cx="99.1893" cy="-172.148" rx="18" ry="18"/>
<text text-anchor="middle" x="99.1893" y="-168.448" font-family="Times,serif" font-size="14.00">6</text>
</g>
<!-- 2&#45;&gt;6 -->
<g id="edge19" class="edge"><title>2&#45;&gt;6</title>
<path fill="none" stroke="black" d="M57.4427,-112.279C65.0802,-123.049 74.9885,-137.021 83.2354,-148.651"/>
<polygon fill="black" stroke="black" points="80.5133,-150.863 89.1529,-156.995 86.2233,-146.814 80.5133,-150.863"/>
</g>
<!-- 3 -->
<g id="node2" class="node"><title>3</title>
<ellipse fill="none" stroke="black" cx="163.189" cy="-94" rx="18" ry="18"/>
<ellipse fill="none" stroke="black" cx="163.189" cy="-94" rx="22" ry="22"/>
<text text-anchor="middle" x="163.189" y="-90.3" font-family="Times,serif" font-size="14.00">3</text>
</g>
<!-- 3&#45;&gt;3 -->
<g id="edge9" class="edge"><title>3&#45;&gt;3</title>
<path fill="none" stroke="black" d="M180.874,-80.8772C192.245,-77.4539 203.189,-81.8281 203.189,-94 203.189,-102.368 198.017,-107.051 191.088,-108.048"/>
<polygon fill="black" stroke="black" points="191.149,-104.539 180.874,-107.123 190.517,-111.51 191.149,-104.539"/>
</g>
<!-- 3&#45;&gt;30 -->
<g id="edge20" class="edge"><title>3&#45;&gt;30</title>
<path fill="none" stroke="black" d="M163.189,-116.197C163.189,-142.573 163.189,-187.774 163.189,-217.633"/>
<polygon fill="black" stroke="black" points="159.689,-217.876 163.189,-227.876 166.689,-217.876 159.689,-217.876"/>
</g>
<!-- 3&#45;&gt;6 -->
<g id="edge14" class="edge"><title>3&#45;&gt;6</title>
<path fill="none" stroke="black" d="M149.302,-111.523C139.863,-122.754 127.289,-137.715 117.098,-149.84"/>
<polygon fill="black" stroke="black" points="114.245,-147.794 110.491,-157.702 119.604,-152.298 114.245,-147.794"/>
</g>
<!-- 15 -->
<g id="node8" class="node"><title>15</title>
<ellipse fill="none" stroke="black" cx="325.189" cy="-172.148" rx="20.2975" ry="20.2975"/>
<text text-anchor="middle" x="325.189" y="-168.448" font-family="Times,serif" font-size="14.00">15</text>
</g>
<!-- 3&#45;&gt;15 -->
<g id="edge1" class="edge"><title>3&#45;&gt;15</title>
<path fill="none" stroke="black" d="M182.73,-104.185C211.406,-117.664 265.012,-142.862 297.663,-158.209"/>
<polygon fill="black" stroke="black" points="296.533,-161.546 307.072,-162.632 299.511,-155.211 296.533,-161.546"/>
</g>
<!-- 5 -->
<g id="node3" class="node"><title>5</title>
<ellipse fill="none" stroke="black" cx="281.189" cy="-94" rx="18" ry="18"/>
<ellipse fill="none" stroke="black" cx="281.189" cy="-94" rx="22" ry="22"/>
<text text-anchor="middle" x="281.189" y="-90.3" font-family="Times,serif" font-size="14.00">5</text>
</g>
<!-- 5&#45;&gt;5 -->
<g id="edge10" class="edge"><title>5&#45;&gt;5</title>
<path fill="none" stroke="black" d="M298.874,-80.8772C310.245,-77.4539 321.189,-81.8281 321.189,-94 321.189,-102.368 316.017,-107.051 309.088,-108.048"/>
<polygon fill="black" stroke="black" points="309.149,-104.539 298.874,-107.123 308.517,-111.51 309.149,-104.539"/>
</g>
<!-- 5&#45;&gt;10 -->
<g id="edge24" class="edge"><title>5&#45;&gt;10</title>
<path fill="none" stroke="black" d="M266.685,-110.778C256.502,-121.856 242.744,-136.822 231.475,-149.081"/>
<polygon fill="black" stroke="black" points="228.682,-146.948 224.491,-156.678 233.835,-151.685 228.682,-146.948"/>
</g>
<!-- 5&#45;&gt;30 -->
<g id="edge7" class="edge"><title>5&#45;&gt;30</title>
<path fill="none" stroke="black" d="M280.894,-116.377C279.587,-137.564 274.741,-169.996 258.189,-192.296 241.706,-214.506 213.408,-229.251 191.973,-237.861"/>
<polygon fill="black" stroke="black" points="190.491,-234.68 182.38,-241.495 192.971,-241.226 190.491,-234.68"/>
</g>
<!-- 5&#45;&gt;15 -->
<g id="edge23" class="edge"><title>5&#45;&gt;15</title>
<path fill="none" stroke="black" d="M291.84,-113.433C297.427,-123.102 304.358,-135.097 310.452,-145.643"/>
<polygon fill="black" stroke="black" points="307.503,-147.536 315.537,-154.443 313.564,-144.033 307.503,-147.536"/>
</g>
<!-- 1 -->
<g id="node4" class="node"><title>1</title>
<ellipse fill="none" stroke="black" cx="163.189" cy="-18" rx="18" ry="18"/>
<text text-anchor="middle" x="163.189" y="-14.3" font-family="Times,serif" font-size="14.00">1</text>
</g>
<!-- 1&#45;&gt;2 -->
<g id="edge6" class="edge"><title>1&#45;&gt;2</title>
<path fill="none" stroke="black" d="M148.244,-28.3722C129.108,-40.3732 95.6046,-61.3836 72.0033,-76.1844"/>
<polygon fill="black" stroke="black" points="70.1057,-73.2431 63.4933,-81.5212 73.8247,-79.1735 70.1057,-73.2431"/>
</g>
<!-- 1&#45;&gt;3 -->
<g id="edge2" class="edge"><title>1&#45;&gt;3</title>
<path fill="none" stroke="black" d="M163.189,-36.1631C163.189,-43.835 163.189,-53.1225 163.189,-61.9465"/>
<polygon fill="black" stroke="black" points="159.689,-61.9678 163.189,-71.9678 166.689,-61.9678 159.689,-61.9678"/>
</g>
<!-- 1&#45;&gt;5 -->
<g id="edge13" class="edge"><title>1&#45;&gt;5</title>
<path fill="none" stroke="black" d="M178.134,-28.3722C197.271,-40.3732 230.774,-61.3836 254.375,-76.1844"/>
<polygon fill="black" stroke="black" points="252.554,-79.1735 262.885,-81.5212 256.273,-73.2431 252.554,-79.1735"/>
</g>
<!-- 1&#45;&gt;1 -->
<g id="edge17" class="edge"><title>1&#45;&gt;1</title>
<path fill="none" stroke="black" d="M176.856,-5.75391C187.846,-0.855469 199.189,-4.9375 199.189,-18 199.189,-26.9805 193.828,-31.7163 186.906,-32.2074"/>
<polygon fill="black" stroke="black" points="187.342,-28.7265 176.856,-30.2461 186.001,-35.5969 187.342,-28.7265"/>
</g>
<!-- 1&#45;&gt;10 -->
<g id="edge16" class="edge"><title>1&#45;&gt;10</title>
<path fill="none" stroke="black" d="M177.442,-29.3523C189.274,-38.904 205.246,-54.2629 212.189,-72 220.952,-94.3866 219.857,-121.855 217.051,-142.198"/>
<polygon fill="black" stroke="black" points="213.587,-141.696 215.471,-152.122 220.5,-142.797 213.587,-141.696"/>
</g>
<!-- 1&#45;&gt;30 -->
<g id="edge27" class="edge"><title>1&#45;&gt;30</title>
<path fill="none" stroke="black" d="M145.098,-19.2286C112.485,-20.7393 44.4249,-29.1535 14.1893,-72 -17.9153,-117.495 10.2212,-152.522 49.1893,-192.296 72.7197,-216.314 108.819,-231.316 134.074,-239.504"/>
<polygon fill="black" stroke="black" points="133.247,-242.911 143.834,-242.506 135.304,-236.221 133.247,-242.911"/>
</g>
<!-- 1&#45;&gt;6 -->
<g id="edge5" class="edge"><title>1&#45;&gt;6</title>
<path fill="none" stroke="black" d="M153.655,-33.4107C147.04,-43.8293 138.346,-58.4056 132.189,-72 121.354,-95.9235 112.22,-124.496 106.329,-144.808"/>
<polygon fill="black" stroke="black" points="102.911,-144.034 103.552,-154.61 109.645,-145.943 102.911,-144.034"/>
</g>
<!-- 1&#45;&gt;15 -->
<g id="edge4" class="edge"><title>1&#45;&gt;15</title>
<path fill="none" stroke="black" d="M181.423,-18.4402C217.002,-18.4662 295.25,-24.2553 330.189,-72 345.127,-92.4121 341.294,-122.005 335.304,-143.544"/>
<polygon fill="black" stroke="black" points="331.958,-142.516 332.361,-153.103 338.648,-144.576 331.958,-142.516"/>
</g>
<!-- 10&#45;&gt;10 -->
<g id="edge25" class="edge"><title>10&#45;&gt;10</title>
<path fill="none" stroke="black" d="M226.864,-159.432C238.122,-155.292 249.337,-159.531 249.337,-172.148 249.337,-180.823 244.037,-185.537 237.065,-186.291"/>
<polygon fill="black" stroke="black" points="237.252,-182.783 226.864,-184.864 236.282,-189.715 237.252,-182.783"/>
</g>
<!-- 10&#45;&gt;30 -->
<g id="edge8" class="edge"><title>10&#45;&gt;30</title>
<path fill="none" stroke="black" d="M200.537,-189.637C194.322,-199.256 186.357,-211.584 179.38,-222.384"/>
<polygon fill="black" stroke="black" points="176.299,-220.703 173.812,-231.002 182.179,-224.502 176.299,-220.703"/>
</g>
<!-- 30&#45;&gt;30 -->
<g id="edge26" class="edge"><title>30&#45;&gt;30</title>
<path fill="none" stroke="black" d="M178.864,-235.729C190.122,-231.589 201.337,-235.827 201.337,-248.445 201.337,-257.119 196.037,-261.833 189.065,-262.587"/>
<polygon fill="black" stroke="black" points="189.252,-259.079 178.864,-261.16 188.282,-266.012 189.252,-259.079"/>
</g>
<!-- 6&#45;&gt;30 -->
<g id="edge22" class="edge"><title>6&#45;&gt;30</title>
<path fill="none" stroke="black" d="M110.631,-186.431C119.833,-197.113 132.969,-212.362 143.806,-224.942"/>
<polygon fill="black" stroke="black" points="141.352,-227.457 150.531,-232.749 146.656,-222.889 141.352,-227.457"/>
</g>
<!-- 6&#45;&gt;6 -->
<g id="edge3" class="edge"><title>6&#45;&gt;6</title>
<path fill="none" stroke="black" d="M112.856,-159.902C123.846,-155.004 135.189,-159.086 135.189,-172.148 135.189,-181.129 129.828,-185.864 122.906,-186.356"/>
<polygon fill="black" stroke="black" points="123.342,-182.875 112.856,-184.394 122.001,-189.745 123.342,-182.875"/>
</g>
<!-- 15&#45;&gt;30 -->
<g id="edge11" class="edge"><title>15&#45;&gt;30</title>
<path fill="none" stroke="black" d="M308.083,-183.249C302.736,-186.279 296.774,-189.53 291.189,-192.296 257.35,-209.056 217.199,-225.877 191.008,-236.456"/>
<polygon fill="black" stroke="black" points="189.674,-233.22 181.696,-240.191 192.281,-239.716 189.674,-233.22"/>
</g>
<!-- 15&#45;&gt;15 -->
<g id="edge18" class="edge"><title>15&#45;&gt;15</title>
<path fill="none" stroke="black" d="M340.864,-159.432C352.122,-155.292 363.337,-159.531 363.337,-172.148 363.337,-180.823 358.037,-185.537 351.065,-186.291"/>
<polygon fill="black" stroke="black" points="351.252,-182.783 340.864,-184.864 350.282,-189.715 351.252,-182.783"/>
</g>
</g>
</svg>
